<?xml version="1.0" encoding="UTF-8"?>
<svg id="Layer_2" data-name="Layer 2" xmlns="http://www.w3.org/2000/svg" xmlns:xlink="http://www.w3.org/1999/xlink" viewBox="0 0 1268.36 1188.09">
  <defs>
    <style>
      .cls-1 {
        fill: url(#linear-gradient-2);
      }

      .cls-2 {
        fill: url(#linear-gradient-4);
      }

      .cls-3 {
        fill: url(#linear-gradient-3);
      }

      .cls-4 {
        fill: url(#linear-gradient-5);
      }

      .cls-5 {
        fill: url(#linear-gradient-6);
      }

      .cls-6 {
        fill: url(#linear-gradient);
      }
    </style>
    <linearGradient id="linear-gradient" x1="830.5" y1="1526.93" x2="-60.05" y2="466.5" gradientUnits="userSpaceOnUse">
      <stop offset="0" stop-color="#005fcf"/>
      <stop offset=".5" stop-color="#34cb7b"/>
      <stop offset="1" stop-color="#bbf61e"/>
    </linearGradient>
    <linearGradient id="linear-gradient-2" x1="1244.14" y1="1179.55" x2="353.59" y2="119.12" xlink:href="#linear-gradient"/>
    <linearGradient id="linear-gradient-3" x1="1278.29" y1="1150.87" x2="387.73" y2="90.45" xlink:href="#linear-gradient"/>
    <linearGradient id="linear-gradient-4" x1="1582.6" y1="895.31" x2="692.04" y2="-165.12" xlink:href="#linear-gradient"/>
    <linearGradient id="linear-gradient-5" x1="1127.24" y1="1277.72" x2="236.69" y2="217.29" xlink:href="#linear-gradient"/>
    <linearGradient id="linear-gradient-6" x1="1116.87" y1="1286.43" x2="226.32" y2="226.01" xlink:href="#linear-gradient"/>
  </defs>
  <g id="Layer_1-2" data-name="Layer 1">
    <g>
      <path class="cls-6" d="M458.37,1188.09h-170.32c-101.65,0-184.06-82.4-184.06-184.06V378.27h105.53v625.75c0,43.38,35.17,78.54,78.54,78.54h170.3c29.14,0,52.76,23.62,52.76,52.76h0c0,29.14-23.62,52.76-52.76,52.76Z"/>
      <path class="cls-1" d="M1258.39,484.11h0c-17.05,23.66-50.06,29.01-73.72,11.94L665.7,121.55c-18.77-13.54-44.1-13.54-62.87,0L83.68,496.06c-23.65,17.06-56.66,11.71-73.71-11.95h0c-17.04-23.65-11.7-56.63,11.94-73.68L555.73,25.37c46.89-33.83,110.18-33.82,157.07.01l533.66,385.06c23.63,17.05,28.98,50.03,11.94,73.68Z"/>
      <path class="cls-3" d="M980.43,1188.09h-181.34c-29.14,0-52.76-23.62-52.76-52.76h0c0-29.14,23.62-52.76,52.76-52.76h181.34c43.38,0,78.54-35.17,78.54-78.54V378.27h105.53v625.75c0,101.66-82.41,184.07-184.07,184.07Z"/>
      <rect class="cls-2" x="872.99" y="33.71" width="166.61" height="231.65"/>
      <path class="cls-4" d="M634.86,1028.64c-48.37,0-93.78-7.81-136.26-23.42-42.49-15.62-79.11-37.82-109.83-66.61-30.75-28.78-53.72-62.78-68.91-101.99l131.6-52.37c28.46,55.04,73.09,92.78,133.75,113.28,4.47,1.51,9.47,2.68,14.19,3.38,42.58,6.35,76.83,4.53,102.82-5.49,15.88-6.11,28.31-14.54,37.3-25.26,8.98-10.71,13.47-23.43,13.47-38.13,0-15.93-5.53-29.54-16.58-40.88-11.06-11.33-28.34-20.36-51.81-27.11l-151.28-44.09c-61.49-17.76-107.77-43.02-138.85-75.8-31.09-32.77-46.62-72.12-46.62-118.06,0-40.43,11.22-75.94,33.68-106.58,22.43-30.63,53.88-54.51,94.28-71.67,40.42-17.13,86.86-25.72,139.37-25.72,46.28,0,89.11,7.05,128.49,21.13,39.37,14.09,73.39,34,102.07,59.71,28.66,25.73,50.26,56.66,64.75,92.8l-130.56,52.37c-14.5-31.84-36.26-56.81-65.28-74.88-29.01-18.06-62.17-27.11-99.47-27.11-21.42,0-40.41,3.07-56.98,9.19-16.58,6.14-29.37,14.86-38.34,26.19-8.99,11.34-13.47,24.35-13.47,39.05,0,15.94,5.86,29.86,17.62,41.81,11.74,11.94,29.35,21.29,52.84,28.02l148.17,42.26c62.17,17.77,108.63,42.58,139.37,74.42,30.74,31.86,46.11,70.75,46.11,116.69,0,39.81-11.75,75.19-35.22,106.11-23.5,30.94-55.79,55.13-96.89,72.58-41.1,17.46-88.94,26.19-143.5,26.19Z"/>
      <rect class="cls-5" x="588.02" y="222.26" width="81.42" height="965.83" rx="40.71" ry="40.71"/>
    </g>
  </g>
</svg>