<?xml version="1.0" encoding="UTF-8"?>
<svg id="Layer_1" data-name="Layer 1" xmlns="http://www.w3.org/2000/svg" viewBox="714 510 622 80">
  <path d="M748.47,545.7h33.34v4c0,8.7-2.99,15.94-8.95,21.72-5.97,5.71-13.88,8.57-23.72,8.57s-18.57-3.33-25.24-10c-6.61-6.79-9.91-14.99-9.91-24.58s3.3-17.75,9.91-24.48c6.67-6.73,15.02-10.1,25.05-10.1,6.1,0,11.75,1.49,16.96,4.48,5.27,2.98,9.24,6.86,11.91,11.62l-7.62,4.48c-1.9-3.62-4.79-6.52-8.67-8.72-3.87-2.19-8.1-3.29-12.67-3.29-7.68,0-13.94,2.51-18.77,7.53-4.89,5.02-7.33,11.18-7.33,18.48s2.44,13.46,7.33,18.48c4.95,4.95,11.34,7.43,19.15,7.43,6.54,0,11.89-1.6,16.05-4.81,4.16-3.21,6.72-7.48,7.67-12.81h-24.48v-8Z"/>
  <path d="M837.44,558.75h-39.91c.82,4.19,2.76,7.48,5.81,9.86,3.05,2.38,6.86,3.57,11.43,3.57,6.29,0,10.86-2.32,13.72-6.95l7.05,4c-4.7,7.18-11.68,10.76-20.95,10.76-7.49,0-13.66-2.35-18.48-7.05-4.7-4.83-7.05-10.83-7.05-18s2.32-13.21,6.95-17.91c4.63-4.76,10.64-7.14,18-7.14,6.99,0,12.67,2.48,17.05,7.43,4.45,4.83,6.67,10.73,6.67,17.72,0,1.21-.09,2.45-.28,3.71ZM814.01,537.7c-4.38,0-8.05,1.24-11,3.71-2.95,2.48-4.78,5.84-5.48,10.1h31.82c-.7-4.38-2.45-7.78-5.24-10.19-2.8-2.41-6.16-3.62-10.1-3.62Z"/>
  <path d="M865.59,539.15v-8.04h-12.67v-13.31l-8.29,2.47v44.7c0,5.83,1.66,9.82,4.98,11.99,3.36,2.17,8.68,2.76,15.99,1.79v-7.4c-2.81.13-5.15.17-7.06.13-1.91-.04-3.32-.55-4.25-1.53-.94-.98-1.36-2.64-1.36-4.98v-25.81h12.67Z"/>
  <path d="M922.79,539.32v-8.19h8.29v47.63h-8.29v-8.19c-4.06,6.29-10.07,9.43-18,9.43-6.73,0-12.42-2.41-17.05-7.24-4.7-4.89-7.05-10.83-7.05-17.81s2.35-12.83,7.05-17.72c4.7-4.89,10.38-7.33,17.05-7.33,7.94,0,13.94,3.14,18,9.43ZM905.84,571.99c4.83,0,8.86-1.62,12.1-4.86,3.24-3.37,4.86-7.43,4.86-12.19s-1.62-8.86-4.86-12.1c-3.24-3.3-7.27-4.95-12.1-4.95s-8.76,1.65-12,4.95c-3.24,3.24-4.86,7.27-4.86,12.1s1.62,8.83,4.86,12.19c3.24,3.24,7.24,4.86,12,4.86Z"/>
  <path d="M1001.54,578.75h-9.81l-14.96-25.53h-15.72v25.53h-8.86v-66.68h26.67c5.72,0,10.61,2.03,14.67,6.1,4.06,4,6.09,8.86,6.09,14.57,0,4.32-1.3,8.26-3.9,11.81-2.67,3.62-5.97,6.13-9.91,7.53l15.72,26.67ZM978.87,520.36h-17.81v24.86h17.81c3.3,0,6.1-1.2,8.38-3.62,2.35-2.41,3.52-5.37,3.52-8.86s-1.18-6.41-3.52-8.76c-2.29-2.41-5.08-3.62-8.38-3.62Z"/>
  <path d="M1051.25,558.75h-39.91c.82,4.19,2.76,7.48,5.81,9.86,3.05,2.38,6.86,3.57,11.43,3.57,6.29,0,10.86-2.32,13.72-6.95l7.05,4c-4.7,7.18-11.68,10.76-20.95,10.76-7.49,0-13.66-2.35-18.48-7.05-4.7-4.83-7.05-10.83-7.05-18s2.32-13.21,6.95-17.91c4.63-4.76,10.64-7.14,18-7.14,6.99,0,12.67,2.48,17.05,7.43,4.45,4.83,6.67,10.73,6.67,17.72,0,1.21-.09,2.45-.28,3.71ZM1027.82,537.7c-4.38,0-8.05,1.24-11,3.71-2.95,2.48-4.78,5.84-5.48,10.1h31.82c-.7-4.38-2.45-7.78-5.24-10.19-2.8-2.41-6.16-3.62-10.1-3.62Z"/>
  <path d="M1084.51,529.89c6.67,0,12.35,2.45,17.05,7.33,4.7,4.89,7.05,10.8,7.05,17.72s-2.35,12.92-7.05,17.81c-4.64,4.83-10.32,7.24-17.05,7.24-7.87,0-13.88-3.14-18-9.43v8.19h-8.29v-66.68h8.29v27.24c4.13-6.29,10.13-9.43,18-9.43ZM1083.46,571.99c4.76,0,8.77-1.62,12-4.86,3.24-3.37,4.86-7.43,4.86-12.19s-1.62-8.86-4.86-12.1c-3.24-3.3-7.24-4.95-12-4.95s-8.86,1.65-12.1,4.95c-3.24,3.24-4.86,7.27-4.86,12.1s1.62,8.83,4.86,12.19c3.24,3.24,7.27,4.86,12.1,4.86Z"/>
  <path d="M1156.05,539.32v-8.19h8.29v47.63h-8.29v-8.19c-4.06,6.29-10.07,9.43-18,9.43-6.73,0-12.42-2.41-17.05-7.24-4.7-4.89-7.05-10.83-7.05-17.81s2.35-12.83,7.05-17.72c4.7-4.89,10.38-7.33,17.05-7.33,7.94,0,13.94,3.14,18,9.43ZM1139.09,571.99c4.83,0,8.86-1.62,12.1-4.86,3.24-3.37,4.86-7.43,4.86-12.19s-1.62-8.86-4.86-12.1c-3.24-3.3-7.27-4.95-12.1-4.95s-8.76,1.65-12,4.95c-3.24,3.24-4.86,7.27-4.86,12.1s1.62,8.83,4.86,12.19c3.24,3.24,7.24,4.86,12,4.86Z"/>
  <path d="M1192.41,539.15v-8.04h-12.67v-13.31l-8.29,2.47v44.7c0,5.83,1.66,9.82,5.02,11.99,3.32,2.17,8.63,2.76,15.95,1.79v-7.4c-2.81.13-5.15.17-7.06.13-1.91-.04-3.32-.55-4.21-1.53-.94-.98-1.4-2.64-1.4-4.98v-25.81h12.67Z"/>
  <path d="M1319.18,565.69v-2.57h-4.05v-4.26l-2.65.79v14.3c0,1.86.53,3.14,1.61,3.84,1.06.69,2.76.88,5.1.57v-2.37c-.9.04-1.65.05-2.26.04-.61-.01-1.06-.18-1.35-.49-.3-.31-.45-.84-.45-1.59v-8.26h4.05Z"/>
  <path d="M1293.26,565.69v-2.57h-4.05v-4.26l-2.65.79v14.3c0,1.86.53,3.14,1.61,3.84,1.06.69,2.76.88,5.1.57v-2.37c-.9.04-1.65.05-2.26.04-.61-.01-1.06-.18-1.35-.49-.3-.31-.45-.84-.45-1.59v-8.26h4.05Z"/>
  <path d="M1243.65,558.75h-39.91c.82,4.19,2.77,7.48,5.81,9.86,3.05,2.38,6.85,3.57,11.43,3.57,6.29,0,10.86-2.32,13.71-6.95l7.05,4c-4.7,7.18-11.69,10.76-20.96,10.76-7.49,0-13.66-2.35-18.48-7.05-4.7-4.83-7.05-10.83-7.05-18s2.32-13.21,6.95-17.91c4.64-4.76,10.63-7.14,18-7.14,6.99,0,12.67,2.48,17.05,7.43,4.44,4.83,6.67,10.73,6.67,17.72,0,1.21-.1,2.45-.29,3.71ZM1220.22,537.7c-4.38,0-8.05,1.24-11,3.71-2.96,2.48-4.78,5.84-5.48,10.1h31.81c-.7-4.38-2.44-7.78-5.23-10.19-2.8-2.41-6.16-3.62-10.1-3.62Z"/>
  <path d="M1274.01,552.46h-3.14l-4.78-8.17h-5.03v8.17h-2.83v-21.33h8.53c1.83,0,3.39.65,4.69,1.95,1.3,1.28,1.95,2.83,1.95,4.66,0,1.38-.42,2.64-1.25,3.78-.85,1.16-1.91,1.96-3.17,2.41l5.03,8.53ZM1266.76,533.78h-5.7v7.95h5.7c1.06,0,1.95-.39,2.68-1.16.75-.77,1.13-1.72,1.13-2.83s-.38-2.05-1.13-2.8c-.73-.77-1.63-1.16-2.68-1.16Z"/>
  <path d="M1289.82,546.06h-12.77c.26,1.34.88,2.39,1.86,3.15.98.76,2.19,1.14,3.66,1.14,2.01,0,3.47-.74,4.39-2.22l2.25,1.28c-1.5,2.3-3.74,3.44-6.7,3.44-2.4,0-4.37-.75-5.91-2.25-1.5-1.54-2.26-3.46-2.26-5.76s.74-4.23,2.22-5.73c1.48-1.52,3.4-2.29,5.76-2.29,2.23,0,4.05.79,5.45,2.38,1.42,1.54,2.13,3.43,2.13,5.67,0,.39-.03.78-.09,1.19ZM1282.33,539.32c-1.4,0-2.57.4-3.52,1.19-.94.79-1.53,1.87-1.75,3.23h10.18c-.22-1.4-.78-2.49-1.68-3.26-.89-.77-1.97-1.16-3.23-1.16Z"/>
  <path d="M1304.94,539.84v-2.62h2.65v15.24h-2.65v-2.62c-1.3,2.01-3.22,3.02-5.76,3.02-2.15,0-3.97-.77-5.45-2.32-1.5-1.56-2.26-3.46-2.26-5.7s.75-4.1,2.26-5.67c1.5-1.56,3.32-2.35,5.45-2.35,2.54,0,4.46,1.01,5.76,3.02ZM1299.51,550.29c1.54,0,2.83-.52,3.87-1.55,1.04-1.08,1.55-2.38,1.55-3.9s-.52-2.83-1.55-3.87c-1.04-1.06-2.33-1.58-3.87-1.58s-2.8.53-3.84,1.58c-1.04,1.04-1.55,2.33-1.55,3.87s.52,2.82,1.55,3.9c1.04,1.04,2.32,1.55,3.84,1.55Z"/>
  <path d="M1312.6,552.46h-2.65v-21.33h2.65v21.33Z"/>
  <path d="M1261.65,568.91v6.76h9.9v2.68h-12.74v-21.33h12.59v2.68h-9.75v6.55h8.99v2.65h-8.99Z"/>
  <path d="M1276.36,567.24c0,.98,1.01,1.74,3.02,2.29.75.16,1.39.33,1.9.5.52.17,1.09.43,1.71.78.62.35,1.09.8,1.42,1.37.32.57.49,1.24.49,2.01,0,1.38-.54,2.49-1.61,3.32-1.08.83-2.44,1.25-4.08,1.25-1.46,0-2.73-.32-3.79-.96-1.07-.64-1.82-1.51-2.27-2.61l2.29-1.31c.24.73.7,1.31,1.37,1.74.67.43,1.47.64,2.41.64s1.65-.17,2.19-.52c.55-.35.82-.86.82-1.55,0-1.04-1.01-1.79-3.02-2.26-.67-.18-1.18-.32-1.52-.43s-.82-.28-1.42-.55c-.6-.26-1.05-.54-1.36-.84s-.58-.69-.84-1.19c-.25-.5-.38-1.05-.38-1.66,0-1.32.51-2.41,1.52-3.26,1.04-.85,2.33-1.28,3.87-1.28,1.24,0,2.34.28,3.31.84.96.56,1.69,1.34,2.18,2.33l-2.22,1.25c-.55-1.3-1.64-1.95-3.26-1.95-.77,0-1.42.18-1.93.55-.52.37-.78.86-.78,1.49Z"/>
  <path d="M1307.38,565.74v-2.62h2.65v15.24h-2.65v-2.62c-1.3,2.01-3.22,3.02-5.76,3.02-2.15,0-3.97-.77-5.45-2.32-1.5-1.56-2.26-3.46-2.26-5.7s.75-4.1,2.26-5.67c1.5-1.56,3.32-2.35,5.45-2.35,2.54,0,4.46,1.01,5.76,3.02ZM1301.95,576.19c1.54,0,2.83-.52,3.87-1.55,1.04-1.08,1.55-2.38,1.55-3.9s-.52-2.83-1.55-3.87c-1.04-1.06-2.33-1.58-3.87-1.58s-2.8.53-3.84,1.58c-1.04,1.04-1.55,2.33-1.55,3.87s.52,2.82,1.55,3.9c1.04,1.04,2.32,1.55,3.84,1.55Z"/>
  <path d="M1335.51,571.96h-12.77c.26,1.34.88,2.39,1.86,3.15.98.76,2.19,1.14,3.66,1.14,2.01,0,3.47-.74,4.39-2.22l2.25,1.28c-1.5,2.3-3.74,3.44-6.7,3.44-2.4,0-4.37-.75-5.91-2.25-1.5-1.54-2.26-3.46-2.26-5.76s.74-4.23,2.22-5.73c1.48-1.52,3.4-2.29,5.76-2.29,2.23,0,4.05.79,5.45,2.38,1.42,1.54,2.13,3.43,2.13,5.67,0,.39-.03.78-.09,1.19ZM1328.01,565.22c-1.4,0-2.57.4-3.52,1.19-.94.79-1.53,1.87-1.75,3.23h10.18c-.22-1.4-.78-2.49-1.68-3.26-.89-.77-1.97-1.16-3.23-1.16Z"/>
</svg>